<?xml version="1.0" encoding="iso-8859-1"?>
<!-- Generator: Adobe Illustrator 16.0.0, SVG Export Plug-In . SVG Version: 6.00 Build 0)  -->
<!DOCTYPE svg PUBLIC "-//W3C//DTD SVG 1.1//EN" "http://www.w3.org/Graphics/SVG/1.1/DTD/svg11.dtd">
<svg xmlns="http://www.w3.org/2000/svg" xmlns:xlink="http://www.w3.org/1999/xlink" version="1.1" id="Capa_1" x="0px" y="0px" width="512px" height="512px" viewBox="0 0 464.881 464.881" style="enable-background:new 0 0 464.881 464.881;" xml:space="preserve">
<g>
	<g>
		<path d="M455.969,49.063L150.187,16.948c-4.921,0-8.909,3.99-8.909,8.91l7.77,79.56c-5.004,2.128-10.139,4.729-15.276,7.931    c-13.645,8.5-20.021,20.582-20.678,39.174c-0.002,0.056-0.002,0.111-0.002,0.169l0.047,0.001l-0.029,31.192l-0.01,0.003    c-0.221,0.064-0.437,0.145-0.646,0.238c-3.234,1.455-4.927,0.799-5.33,7.595c-0.458,7.741,0.887,28.19,9.238,33.292    c1.251,1.283,2.074,4.788,2.569,8.687c0.925,7.297,1.972,15.568,6.089,20.982c9.371,12.326,6.91,31.404,6.701,32.886    c-0.033,0.021-0.078,0.048-0.139,0.077c-5.775,2.593-7.291,7.645-8.4,11.336l-0.568,1.833c-1.494,4.817-2.908,9.371-4.855,13.694    c-0.262,0.375-1.391,1.27-2.854,1.822l-4.267,1.635c-26.976,10.343-54.87,21.035-80.774,35.354    C5.377,366.855,0.227,440.162,0.02,442.489c-0.125,1.397,0.344,2.783,1.291,3.818c0.947,1.035,2.286,1.625,3.689,1.625h178.672    h178.673c1.402,0,2.741-0.59,3.688-1.625c0.947-1.035,1.416-2.421,1.292-3.818c-0.208-2.327-5.355-75.634-29.843-89.169    c-25.906-14.319-53.8-25.013-80.774-35.354l-4.269-1.635c-1.463-0.554-2.592-1.447-2.854-1.822    c-1.947-4.323-3.359-8.877-4.855-13.694l-0.567-1.833c-1.107-3.691-2.625-8.743-8.399-11.336c-0.06-0.029-0.106-0.057-0.138-0.077    c-0.209-1.481-2.672-20.56,6.701-32.886c4.114-5.414,5.163-13.686,6.088-20.982c0.493-3.898,1.317-7.403,2.569-8.687    c2.768-1.69,4.761-5.069,6.179-9.107h46.983v57.916c0,3.604,2.17,6.853,5.501,8.231c1.102,0.455,2.259,0.679,3.406,0.679    c2.317,0,4.598-0.906,6.302-2.61l64.662-64.216h38.308c4.922,0,8.91-3.988,8.91-8.91l33.646-149.022    C464.88,53.052,460.891,49.063,455.969,49.063z M410.787,192.843h-26.771h-9.506l-6.745,6.698l-40.56,40.28v-23.917v-23.062    h-23.062h-43.876c-0.014-0.396-0.028-0.776-0.049-1.123c-0.402-6.796-2.096-6.14-5.33-7.595c-0.209-0.094-0.425-0.174-0.645-0.238    l-0.011-0.003l0.011-31.189c-0.007-4.886-0.378-9.274-1.117-13.192c0.688,0.098,1.388,0.165,2.104,0.165    c8.222,0,14.888-6.665,14.888-14.886c0-8.221-6.666-14.886-14.888-14.886c-6.276,0-11.636,3.891-13.822,9.388    c-3.245-2.403-6.842-4.68-10.349-6.883c-5.379-3.376-10.941-6.868-12.955-9.599c-4.398-5.964-18.998-6.608-25.07-6.608    c-4.402,0-12.073,0.359-21.496,2.264l-5.533-56.66l272.425,28.611L410.787,192.843z" fill="#ffffff"/>
		<circle cx="303.076" cy="124.782" r="14.886" fill="#fff"/>
		<circle cx="350.925" cy="124.782" r="14.886" fill="#fff"/>
	</g>
</g>
<g>
</g>
<g>
</g>
<g>
</g>
<g>
</g>
<g>
</g>
<g>
</g>
<g>
</g>
<g>
</g>
<g>
</g>
<g>
</g>
<g>
</g>
<g>
</g>
<g>
</g>
<g>
</g>
<g>
</g>
</svg>
